# xmcd
#
# Track frame offsets:
#	150
#	11682
#	27321
#	38466
#	51002
#	61917
#	72666
#	82581
#	94427
#	107015
#	118158
#	130672
#	141757
#	153543
#	164376
#	176585
#
# Disc length: 2495 seconds
#
# Revision: 1
# Processed by: cddbd v1.5.2PL0 Copyright (c) Steve Scherf et al.
# Submitted via: audiograbber 1.83.01
#
DISCID=d109bd10
DTITLE=Various Artist - Country Love Song (Desperado)
DYEAR=2006
DGENRE=Country
TTITLE0=Freddy Fender - Before The Next Teardrops Fals
TTITLE1=Skeeter Davis - Desperado
TTITLE2=Don Gibson - Oh Lonesome Me
TTITLE3=Wanda Jackson - Crazy
TTITLE4=Dolly Parton - It wasn`t God Who Made Honkytonk Angles
TTITLE5=Carl Belew - Am I That Easy To Forgot
TTITLE6=Brenda Leee - I`m Sorry
TTITLE7=Willi Nelson - The Last Letter
TTITLE8=Patsy Cline - Fingerprints
TTITLE9=Don Williams - Storybook Children
TTITLE10=Gene Autry - Have I Told You Lately That I Love You
TTITLE11=Anne Murray - Last Thing On My Mind
TTITLE12=Charley Pride - There goes My Everything
TTITLE13=Hank Williams - I Can`t Help It
TTITLE14=Porter Wagoner - A Satiesfield Mind
TTITLE15=Ferlin Husky - Gone
EXTD=
EXTT0=
EXTT1=
EXTT2=
EXTT3=
EXTT4=
EXTT5=
EXTT6=
EXTT7=
EXTT8=
EXTT9=
EXTT10=
EXTT11=
EXTT12=
EXTT13=
EXTT14=
EXTT15=
PLAYORDER=
